<!-- <svg width="64" height="64" viewBox="0 0 64 64" fill="none" xmlns="http://www.w3.org/2000/svg">
<g id="Group 238179">
<g id="Group 238178">
<path id="Union" d="M16 20V28.3333H25.3673V49H27.8537H33.6327" stroke="url(#paint0_linear_4962_18104)" stroke-opacity="0.4"/>
<path id="Union_2" d="M30.102 25.5H19.5V16.5H22.122H23.6829H25.2439H50.5V24.6842V25.5H39.898H39.398V26V45.5H33.8293H30.602V26V25.5H30.102Z" stroke="url(#paint1_linear_4962_18104)"/>
</g>
</g>
<defs>
<linearGradient id="paint0_linear_4962_18104" x1="29.5" y1="20" x2="29.5" y2="45" gradientUnits="userSpaceOnUse">
<stop offset="0.673717" stop-color="white"/>
<stop offset="1" stop-color="#FFEA9F"/>
</linearGradient>
<linearGradient id="paint1_linear_4962_18104" x1="36.1707" y1="46" x2="36.1707" y2="16" gradientUnits="userSpaceOnUse">
<stop stop-color="#FFEA9F"/>
<stop offset="0.389316" stop-color="white"/>
</linearGradient>
</defs>
</svg> -->

<svg xmlns="http://www.w3.org/2000/svg" fill="none" viewBox="0 0 24 24" stroke-width="1.5" stroke="currentColor" class="size-6">
  <path stroke-linecap="round" stroke-linejoin="round" d="M15.59 14.37a6 6 0 0 1-5.84 7.38v-4.8m5.84-2.58a14.98 14.98 0 0 0 6.16-12.12A14.98 14.98 0 0 0 9.631 8.41m5.96 5.96a14.926 14.926 0 0 1-5.841 2.58m-.119-8.54a6 6 0 0 0-7.381 5.84h4.8m2.581-5.84a14.927 14.927 0 0 0-2.58 5.84m2.699 2.7c-.103.021-.207.041-.311.06a15.09 15.09 0 0 1-2.448-2.448 14.9 14.9 0 0 1 .06-.312m-2.24 2.39a4.493 4.493 0 0 0-1.757 4.306 4.493 4.493 0 0 0 4.306-1.758M16.5 9a1.5 1.5 0 1 1-3 0 1.5 1.5 0 0 1 3 0Z" />
</svg>
